<?xml version="1.0"?><svg width="827.7625" height="602.225" xmlns="http://www.w3.org/2000/svg">
 <metadata id="metadata9875">image/svg+xml</metadata>
 <g>
  <title>Layer 1</title>
  <g id="g9877" transform="matrix(1.25 0 0 -1.25 0 602.225)">
   <g id="g9879" transform="translate(0 -1) scale(0.24 0.24)">
    <path d="m0,271.605011l56.054699,53.075012l105.883305,103.02298l65.397995,68.684021l21.800995,28.096985l6.230011,74.926025l-15.574005,137.362976l-24.914001,56.195984l-15.569992,49.953003l0,28.093994l49.827988,34.343018l109,46.825012l127.683014,24.976013l124.567017,9.367004l34.257996,-6.242004l24.914001,-21.855042l31.143982,0l115.22699,40.585999l52.940979,18.734009l31.141052,-18.734009l21.800964,9.364014l-3.114014,18.72998l34.254028,49.950073l21.801025,43.709961l18.686951,3.119995l31.138977,-9.359985l21.800049,15.609985l21.800049,37.459961l-9.340088,140.48999l-21.799927,43.700073l-12.460083,12.48999l-28.024963,18.72998l43.595032,24.97998l21.799927,0l0,31.219971l-21.799927,12.490112l-6.219971,6.23999l-6.230103,9.359985l-21.809937,-6.23999l-9.335022,0l-6.231018,37.459961l43.606079,59.319946l15.569946,53.070068l40.47998,46.829956l31.150024,43.710083l15.569946,49.949951l52.940063,56.189941l74.73999,62.440063l87.199951,31.219971l115.220093,37.459961l68.519897,9.370117l40.480103,18.72998l52.939941,24.97998l77.859985,15.609985l15.570068,-46.829956l-9.340088,-3.120117l-15.569946,0l-6.22998,-18.73999l0,-34.329956l9.339966,-56.199951l15.569946,-43.710083l0,-12.48999l6.230103,3.130005l9.349976,12.47998l6.219971,6.25l6.22998,-6.25l0,-18.72998l12.459961,-43.699951l12.450073,-15.609985l0,-12.48999l-6.219971,-9.369995l-18.690063,-12.490112l-3.109985,0l0,-15.609985l3.109985,-24.969971l12.459961,-18.72998l6.230103,-15.609985l-3.119995,-21.849976l-3.110107,-18.730103l-9.339966,-15.619995l12.450073,-96.779907l18.689941,-49.950073l0,-34.339966l3.109985,-15.609985l-18.679932,-12.48999l21.799927,-43.700073l15.570068,-43.709961l12.449951,-21.849976l0,-6.25l-15.569946,-15.609985l-9.340088,-12.48999l0,-24.969971l9.340088,-18.730103l15.569946,-6.23999l6.22998,0l9.340088,12.47998l3.119995,15.610107l6.22998,0l12.449951,-3.119995l24.920044,-15.610107l18.679932,-15.609985l3.119995,0l74.73999,-299.703979l127.690063,-555.703003l31.139893,-24.976013l-65.399902,-49.949997l31.139893,-34.338989l-12.459961,-37.460999l0,-37.465004l15.580078,-28.0979l-9.350098,-3.125l-9.349854,-28.097702l0,-56.191399l-34.25,15.6094l-6.230103,21.855402l-21.799927,6.242199l-9.340088,0l-267.819946,56.195313l-18.690063,28.097702l-56.059937,18.72998l-34.25,24.973007l-3.119995,37.464996l-9.339966,24.977005l-28.02002,15.604996l-18.690063,31.222992l-3.119995,40.585999l-40.47998,34.33902l-31.140015,24.97699l-31.150024,21.85199l-15.569946,12.488007l-1423.202631,-231.024002l-28.027299,87.414017l0,0" id="path9881" fill-rule="nonzero" fill="#ffffff"/>
    <path d="m0,271.605011l56.054699,53.075012l105.883305,103.02298l65.397995,68.684021l21.800995,28.096985l6.230011,74.926025l-15.574005,137.362976l-24.914001,56.195984l-15.569992,49.953003l0,28.093994l49.827988,34.343018l109,46.825012l127.683014,24.976013l124.567017,9.367004l34.257996,-6.242004l24.914001,-21.855042l31.143982,0l115.22699,40.585999l52.940979,18.734009l31.141052,-18.734009l21.800964,9.364014l-3.114014,18.72998l34.254028,49.950073l21.801025,43.709961l18.686951,3.119995l31.138977,-9.359985l21.800049,15.609985l21.800049,37.459961l-9.340088,140.48999l-21.799927,43.700073l-12.460083,12.48999l-28.024963,18.72998l43.595032,24.97998l21.799927,0l0,31.219971l-21.799927,12.490112l-6.219971,6.23999l-6.230103,9.359985l-21.809937,-6.23999l-9.335022,0l-6.231018,37.459961l43.606079,59.319946l15.569946,53.070068l40.47998,46.829956l31.150024,43.710083l15.569946,49.949951l52.940063,56.189941l74.73999,62.440063l87.199951,31.219971l115.220093,37.459961l68.519897,9.370117l40.480103,18.72998l52.939941,24.97998l77.859985,15.609985l15.570068,-46.829956l-9.340088,-3.120117l-15.569946,0l-6.22998,-18.73999l0,-34.329956l9.339966,-56.199951l15.569946,-43.710083l0,-12.48999l6.230103,3.130005l9.349976,12.47998l6.219971,6.25l6.22998,-6.25l0,-18.72998l12.459961,-43.699951l12.450073,-15.609985l0,-12.48999l-6.219971,-9.369995l-18.690063,-12.490112l-3.109985,0l0,-15.609985l3.109985,-24.969971l12.459961,-18.72998l6.230103,-15.609985l-3.119995,-21.849976l-3.110107,-18.730103l-9.339966,-15.619995l12.450073,-96.779907l18.689941,-49.950073l0,-34.339966l3.109985,-15.609985l-18.679932,-12.48999l21.799927,-43.700073l15.570068,-43.709961l12.449951,-21.849976l0,-6.25l-15.569946,-15.609985l-9.340088,-12.48999l0,-24.969971l9.340088,-18.730103l15.569946,-6.23999l6.22998,0l9.340088,12.47998l3.119995,15.610107l6.22998,0l12.449951,-3.119995l24.920044,-15.610107l18.679932,-15.609985l3.119995,0l74.73999,-299.703979l127.690063,-555.703003l31.139893,-24.976013l-65.399902,-49.949997l31.139893,-34.338989l-12.459961,-37.460999l0,-37.465004l15.580078,-28.0979l-9.350098,-3.125l-9.349854,-28.097702l0,-56.191399l-34.25,15.6094l-6.230103,21.855402l-21.799927,6.242199l-9.340088,0l-267.819946,56.195313l-18.690063,28.097702l-56.059937,18.72998l-34.25,24.973007l-3.119995,37.464996l-9.339966,24.977005l-28.02002,15.604996l-18.690063,31.222992l-3.119995,40.585999l-40.47998,34.33902l-31.140015,24.97699l-31.150024,21.85199l-15.569946,12.488007l-1423.202631,-231.024002l-28.027299,87.414017l0,0" id="path9883" fill-rule="nonzero" fill="#ffffff"/>
    <path d="m0,271.605011l56.054699,53.075012l105.883305,103.02298l65.397995,68.684021l21.800995,28.096985l6.230011,74.926025l-15.574005,137.362976l-24.914001,56.195984l-15.569992,49.953003l0,28.093994l49.827988,34.343018l109,46.825012l127.683014,24.976013l124.567017,9.367004l34.257996,-6.242004l24.914001,-21.855042l31.143982,0l115.22699,40.585999l52.940979,18.734009l31.141052,-18.734009l21.800964,9.364014l-3.114014,18.72998l34.254028,49.950073l21.801025,43.709961l18.686951,3.119995l31.138977,-9.359985l21.800049,15.609985l21.800049,37.459961l-9.340088,140.48999l-21.799927,43.700073l-12.460083,12.48999l-28.024963,18.72998l43.595032,24.97998l21.799927,0l0,31.219971l-21.799927,12.490112l-6.219971,6.23999l-6.230103,9.359985l-21.809937,-6.23999l-9.335022,0l-6.231018,37.459961l43.606079,59.319946l15.569946,53.070068l40.47998,46.829956l31.150024,43.710083l15.569946,49.949951l52.940063,56.189941l74.73999,62.440063l87.199951,31.219971l115.220093,37.459961l68.519897,9.370117l40.480103,18.72998l52.939941,24.97998l77.859985,15.609985l15.570068,-46.829956l-9.340088,-3.120117l-15.569946,0l-6.22998,-18.73999l0,-34.329956l9.339966,-56.199951l15.569946,-43.710083l0,-12.48999l6.230103,3.130005l9.349976,12.47998l6.219971,6.25l6.22998,-6.25l0,-18.72998l12.459961,-43.699951l12.450073,-15.609985l0,-12.48999l-6.219971,-9.369995l-18.690063,-12.490112l-3.109985,0l0,-15.609985l3.109985,-24.969971l12.459961,-18.72998l6.230103,-15.609985l-3.119995,-21.849976l-3.110107,-18.730103l-9.339966,-15.619995l12.450073,-96.779907l18.689941,-49.950073l0,-34.339966l3.109985,-15.609985l-18.679932,-12.48999l21.799927,-43.700073l15.570068,-43.709961l12.449951,-21.849976l0,-6.25l-15.569946,-15.609985l-9.340088,-12.48999l0,-24.969971l9.340088,-18.730103l15.569946,-6.23999l6.22998,0l9.340088,12.47998l3.119995,15.610107l6.22998,0l12.449951,-3.119995l24.920044,-15.610107l18.679932,-15.609985l3.119995,0l74.73999,-299.703979l127.690063,-555.703003l31.139893,-24.976013l-65.399902,-49.949997l31.139893,-34.338989l-12.459961,-37.460999l0,-37.465004l15.580078,-28.0979l-9.350098,-3.125l-9.349854,-28.097702l0,-56.191399l-34.25,15.6094l-6.230103,21.855402l-21.799927,6.242199l-9.340088,0l-267.819946,56.195313l-18.690063,28.097702l-56.059937,18.72998l-34.25,24.973007l-3.119995,37.464996l-9.339966,24.977005l-28.02002,15.604996l-18.690063,31.222992l-3.119995,40.585999l-40.47998,34.33902l-31.140015,24.97699l-31.150024,21.85199l-15.569946,12.488007l-1423.202631,-231.024002l-28.027299,87.414017l0,0l-0.00005,0z" id="path9885" fill="#ffffff"/>
    <path d="m2111.449951,53.070301l6.22998,28.097698l18.679932,18.734299l18.690186,9.363701l28.029785,15.612999l28.030029,21.850998l24.910156,24.973007l18.679932,28.10199l18.689941,15.609009l37.370117,0l34.26001,28.097992l40.47998,21.851013l65.399902,0l34.26001,9.363983l40.47998,21.855011l68.52002,49.953003l56.050049,46.828003l21.800049,-9.367004l-49.830078,-68.679993l-65.389893,-31.222015l15.569824,-15.609985l68.51001,28.097992l49.830078,43.707001l68.51001,15.609009l-65.399902,-49.949005l-80.970215,-65.557999l-105.879883,-71.809006l-40.48999,-31.214996l-115.219971,-59.320107l-59.170166,-37.460999l-12.459961,-9.3671l-15.569824,0l9.339844,21.851501l18.689941,24.976597l-37.379883,0l-24.909912,-24.976597l-6.22998,-12.484402l-21.800049,-24.9765l-18.680176,-6.242209l-46.719971,6.242209l-9.339844,21.855402l-9.340088,0l-6.22998,15.605499l0,0" id="path9887" fill-rule="nonzero" fill="#ffffff"/>
    <path d="m2111.449951,53.070301l6.22998,28.097698l18.679932,18.734299l18.690186,9.363701l28.029785,15.612999l28.030029,21.850998l24.910156,24.973007l18.679932,28.10199l18.689941,15.609009l37.370117,0l34.26001,28.097992l40.47998,21.851013l65.399902,0l34.26001,9.363983l40.47998,21.855011l68.52002,49.953003l56.050049,46.828003l21.800049,-9.367004l-49.830078,-68.679993l-65.389893,-31.222015l15.569824,-15.609985l68.51001,28.097992l49.830078,43.707001l68.51001,15.609009l-65.399902,-49.949005l-80.970215,-65.557999l-105.879883,-71.809006l-40.48999,-31.214996l-115.219971,-59.320107l-59.170166,-37.460999l-12.459961,-9.3671l-15.569824,0l9.339844,21.851501l18.689941,24.976597l-37.379883,0l-24.909912,-24.976597l-6.22998,-12.484402l-21.800049,-24.9765l-18.680176,-6.242209l-46.719971,6.242209l-9.339844,21.855402l-9.340088,0l-6.22998,15.605499l0,0" id="path9889" fill-rule="nonzero" fill="#ffffff"/>
    <path d="m2111.449951,53.070301l6.22998,28.097698l18.679932,18.734299l18.690186,9.363701l28.029785,15.612999l28.030029,21.850998l24.910156,24.973007l18.679932,28.10199l18.689941,15.609009l37.370117,0l34.26001,28.097992l40.47998,21.851013l65.399902,0l34.26001,9.363983l40.47998,21.855011l68.52002,49.953003l56.050049,46.828003l21.800049,-9.367004l-49.830078,-68.679993l-65.389893,-31.222015l15.569824,-15.609985l68.51001,28.097992l49.830078,43.707001l68.51001,15.609009l-65.399902,-49.949005l-80.970215,-65.557999l-105.879883,-71.809006l-40.48999,-31.214996l-115.219971,-59.320107l-59.170166,-37.460999l-12.459961,-9.3671l-15.569824,0l9.339844,21.851501l18.689941,24.976597l-37.379883,0l-24.909912,-24.976597l-6.22998,-12.484402l-21.800049,-24.9765l-18.680176,-6.242209l-46.719971,6.242209l-9.339844,21.855402l-9.340088,0l-6.22998,15.605499l0,0z" id="path9891" fill="#ffffff"/>
    <path d="m1035.790039,838.703003l0,2.862976l28.650024,0l0,-2.862976c-4.599976,0 -7.780029,-1.085999 -9.570068,-3.257996c-1.779907,-2.171997 -2.669922,-6.10498 -2.669922,-11.799988l0,-77.649048l-3.01001,0l-67.565002,83.121033l0,-67.057983c0,-4.727051 0.960999,-8.110046 2.882996,-10.14502c1.917969,-2.039001 5.125,-3.054993 9.617004,-3.054993l0,-2.863037l-28.906006,0l0,2.863037c4.578003,0 7.675964,1.203979 9.296997,3.620972c1.612976,2.415039 2.421997,6.657043 2.421997,12.735046l0,55.828003c0,6.022949 -1.093994,10.347961 -3.273987,12.97998c-2.184021,2.628967 -5.777039,4.192017 -10.789001,4.679993l0,2.862976l24.448975,0l60.185974,-74.414001l0,55.840027c0,5.859985 -0.829956,9.945984 -2.5,12.25c-1.669922,2.304993 -4.73999,3.460999 -9.219971,3.460999" id="path9893" fill-rule="nonzero" fill="#ffffff"/>
    <path d="m1137.319946,805.629028l2.869995,0l0,-23.437988l-2.869995,0c-1.030029,4.148987 -2.290039,6.747009 -3.76001,7.796997c-1.469971,1.050964 -4.699951,1.578003 -9.660034,1.578003l-23.819946,0l0,-34.343018c0,-2.398987 0.530029,-4.089966 1.599976,-5.075012c1.060059,-0.975952 2.869995,-1.463989 5.440063,-1.463989l16.769897,0c6.01001,0 10.150024,0.324036 12.450073,0.984009c2.290039,0.651978 4.219971,1.870972 5.799927,3.64502c1.580078,1.77301 3.280029,4.659973 5.080078,8.651978l2.859985,0l-4.410034,-17.968994l-69.030029,0l0,2.862976c4.340088,0 7.240112,1.098022 8.720093,3.296997c1.47998,2.196045 2.219971,6.085999 2.219971,11.676025l0,59.651978c0,5.801025 -0.77002,9.789001 -2.300049,11.960999c-1.539917,2.171997 -4.409912,3.257996 -8.640015,3.257996l0,2.863037l69.02002,0l0,-15.882019l-1.829956,0c-0.97998,4.507019 -2.380005,7.5 -4.209961,8.976013c-1.820068,1.481018 -5.790039,2.218994 -11.900024,2.218994l-27.640015,0l0,-40.625l26.849976,0c3.650024,0 6.150024,0.651978 7.48999,1.957031c1.330078,1.304993 2.300049,3.776978 2.900024,7.417969" id="path9895" fill-rule="nonzero" fill="#ffffff"/>
    <path d="m1305.099976,841.565979l0,-2.862976c-3.73999,-0.27301 -6.859985,-1.832031 -9.349976,-4.679993c-2.48999,-2.847046 -4.97998,-7.746033 -7.469971,-14.695007l-26.780029,-74.637024l-2.930054,0l-26.169922,70.234985l-25.210083,-70.234985l-2.829956,0l-29.130005,78.789001c-1.630005,4.335999 -3.079956,7.551025 -4.359985,9.64502c-1.280029,2.089966 -2.650024,3.542969 -4.119995,4.35498c-1.469971,0.817017 -4.050049,1.223022 -7.75,1.223022l0,2.862976l35.419922,0l0,-2.862976c-5.599976,-0.652039 -8.399902,-2.715027 -8.399902,-6.179993c0,-1.414001 0.409912,-3.203003 1.219971,-5.375l22.410034,-60.644043l20.149902,55.512024l-2.099976,6.182983c-1.339966,3.856018 -2.97998,6.567017 -4.910034,8.14502c-1.939941,1.570007 -4.709961,2.359009 -8.319946,2.359009l0,2.862976l34.900024,0l0,-2.862976c-6.22998,0 -9.339966,-1.906006 -9.339966,-5.710999c0,-1.578003 0.429932,-3.585999 1.309937,-6.031006l22.47998,-60.457031l19.469971,53.484009c1.570068,4.25 2.360107,7.746033 2.360107,10.489014c0,5.484009 -3.150024,8.226013 -9.460083,8.226013l0,2.862976l28.910034,0" id="path9897" fill-rule="nonzero" fill="#ffffff"/>
    <path d="m1429.560059,827.879028l-21.530029,-33.862976l0,-30.024048c0,-5.803955 0.77002,-9.776978 2.330078,-11.917969c1.549927,-2.143982 4.419922,-3.215027 8.599976,-3.215027l0,-2.862976l-35.150024,0l0,2.862976c4.719971,0 7.849976,1.137024 9.400024,3.41803c1.539917,2.278015 2.319946,6.179993 2.319946,11.714966l0,30.024048l-20.280029,31.659973c-3.349976,5.265015 -6.089966,8.715027 -8.199951,10.340027c-2.109985,1.628967 -5.030029,2.522949 -8.76001,2.686951l0,2.863037l37.23999,0l0,-2.863037c-6.530029,0 -9.789917,-1.491943 -9.789917,-4.472961c0,-1.355042 0.649902,-3.035034 1.959961,-5.039001l18.609985,-29.074036l15.319946,24.082031c2.220093,3.58197 3.330078,6.653015 3.330078,9.210999c0,3.528015 -2.080078,5.292969 -6.26001,5.292969l0,2.863037l26.049927,0l0,-2.863037c-3.519897,-0.218994 -6.23999,-0.991943 -8.159912,-2.319946c-1.930054,-1.332031 -4.27002,-4.16803 -7.030029,-8.504028" id="path9899" fill-rule="nonzero" fill="#ffffff"/>
    <path d="m1448.880005,794.22699c0,14.096985 4.880005,25.859009 14.650024,35.284973c9.76001,9.421997 21.949951,14.140015 36.540039,14.140015c14.159912,0 26.139893,-4.784973 35.939941,-14.343018c9.790039,-9.562988 14.689941,-21.253967 14.689941,-35.08197c0,-14.10199 -4.929932,-26.012024 -14.819946,-35.731018c-9.869995,-9.725952 -21.940063,-14.585999 -36.209961,-14.585999c-14.220093,0 -26.23999,4.860046 -36.060059,14.585999c-9.819946,9.718994 -14.72998,21.629028 -14.72998,35.731018zm14.579956,-0.161011c0,-13.882019 3.320068,-25.10498 9.950073,-33.667969c6.630005,-8.562012 15.329956,-12.83905 26.089966,-12.83905c10.880005,0 19.699951,4.371033 26.459961,13.125c6.77002,8.75 10.160034,19.660034 10.160034,32.730042c0,14.046997 -3.319946,25.320007 -9.949951,33.83197c-6.630005,8.504028 -15.220093,12.757996 -25.77002,12.757996c-11.200073,0 -20.150024,-4.187988 -26.869995,-12.562988c-6.710083,-8.370972 -10.070068,-19.495972 -10.070068,-33.375" id="path9901" fill-rule="nonzero" fill="#ffffff"/>
    <path d="m1597.530029,790.265991l-7.619995,0l0,-26.245972c0,-5.653015 0.800049,-9.590027 2.410034,-11.821045c1.609985,-2.22998 4.449951,-3.339966 8.529907,-3.339966l0,-2.863037l-34.369995,0l0,2.863037c4.27002,0 7.160034,1.109985 8.670044,3.335999c1.51001,2.222961 2.26001,6.156982 2.26001,11.800964l0,59.812988c0,5.640015 -0.73999,9.535034 -2.219971,11.679016c-1.47998,2.140991 -4.390015,3.215027 -8.710083,3.215027l0,2.862976l39.210083,0c9.669922,0 17.400024,-2.351013 23.199951,-7.054016c5.780029,-4.703003 8.680054,-10.703003 8.680054,-17.984985c0,-11.753967 -6.540039,-19.58197 -19.630005,-23.495972c2.76001,-1.840027 5.449951,-4.371033 8.079956,-7.590027c2.630005,-3.221985 6.180054,-8.562012 10.640015,-16.034973c5.02002,-8.285034 8.930054,-13.726013 11.719971,-16.324036c2.800049,-2.597961 5.710083,-4.003967 8.719971,-4.222961l0,-2.863037l-19.529907,0c-4.02002,4.890991 -8.869995,12 -14.570068,21.332031c-6.079956,9.812988 -10.809937,16.089966 -14.209961,18.828003c-3.390015,2.739014 -7.150024,4.109985 -11.26001,4.109985zm2.449951,47.656006l-10.069946,0l0,-43.75l11.790039,0c7.029907,0 12.549927,2.007996 16.569946,6.039001c4.01001,4.026978 6.02002,9.35498 6.02002,15.995972c0,6.47699 -2.22998,11.710999 -6.680054,15.710999c-4.449951,4 -10.319946,6.004028 -17.630005,6.004028" id="path9903" fill-rule="nonzero" fill="#ffffff"/>
    <path d="m1666.040039,745.995972l0,2.862976c4.209961,0 7.089966,1.121033 8.630005,3.375c1.530029,2.25 2.300049,6.171997 2.300049,11.762024l0,59.487976c0,5.75 -0.76001,9.727051 -2.26001,11.921997c-1.51001,2.199036 -4.400024,3.296997 -8.670044,3.296997l0,2.863037l34.630005,0l0,-2.863037c-4.119995,0 -6.969971,-1.139954 -8.560059,-3.414001c-1.589966,-2.276978 -2.380005,-6.210999 -2.380005,-11.792969l0,-28.781006l31.200073,30.757996c3.309937,3.315979 4.969971,5.965027 4.969971,7.945007c0,2.723022 -1.98999,4.484009 -5.959961,5.284973l0,2.863037l35.939941,0l0,-2.863037l-4.699951,0c-2.880005,0 -6.160034,-0.95697 -9.869995,-2.870972c-3.700073,-1.909973 -7.099976,-4.426025 -10.180054,-7.546997l-29.75,-29.39801l39.460083,-40.02002c3.909912,-4.014954 6.919922,-6.616943 9.039917,-7.811951c2.109985,-1.196045 5.070068,-1.926025 8.859985,-2.196045l0,-2.862976l-22.809937,0l-46.200073,46.848022l0,-28.835999c0,-5.590027 0.77002,-9.516052 2.300049,-11.77002c1.530029,-2.254028 4.410034,-3.379028 8.640015,-3.379028l0,-2.862976l-34.630005,0" id="path9905" fill-rule="nonzero" fill="#ffffff"/>
   </g>
  </g>
 </g>
</svg>