<?xml version="1.0" encoding="iso-8859-1"?>
<!-- Generator: Adobe Illustrator 19.0.0, SVG Export Plug-In . SVG Version: 6.00 Build 0)  -->
<svg version="1.1" id="Layer_1" xmlns="http://www.w3.org/2000/svg" xmlns:xlink="http://www.w3.org/1999/xlink" x="0px" y="0px"
	 viewBox="0 0 512 512" style="enable-background:new 0 0 512 512;" xml:space="preserve">
<path style="fill:#C6C5CA;" d="M452.735,71.623h-58.522c-8.323,0-15.07,6.747-15.07,15.07v123.466c0,8.323,6.747,15.07,15.07,15.07
	h58.522c8.323,0,15.07-6.747,15.07-15.07V86.693C467.805,78.37,461.058,71.623,452.735,71.623z"/>
<path style="fill:#F2F2F2;" d="M423.474,71.623h-29.261c-8.323,0-15.07,6.747-15.07,15.07v123.466c0,8.323,6.747,15.07,15.07,15.07
	h29.261V71.623z"/>
<path style="fill:#007BC7;" d="M447.762,205.436H74.561c-9.622,0-17.422,7.8-17.422,17.422V494.23c0,9.622,7.8,17.422,17.422,17.422
	h373.201c9.622,0,17.422-7.8,17.422-17.422V222.858C465.184,213.236,457.383,205.436,447.762,205.436z"/>
<path style="fill:#53ADE6;" d="M256.073,205.436H74.561c-9.622,0-17.422,7.8-17.422,17.422V494.23c0,9.622,7.8,17.422,17.422,17.422
	h181.512V205.436z"/>
<path style="fill:#003C61;" d="M502.899,239.968L267.833,4.902c-6.534-6.535-17.129-6.535-23.664,0L9.102,239.968
	c-4.786,4.786-6.218,11.983-3.628,18.236c2.59,6.253,8.692,10.33,15.459,10.33h470.132c6.768,0,12.87-4.077,15.459-10.33
	C509.115,251.951,507.685,244.754,502.899,239.968z"/>
<path style="fill:#1D1D1F;" d="M327.343,512V343.202c0-10.397-8.429-18.826-18.826-18.826H203.483
	c-10.397,0-18.826,8.429-18.826,18.826V512H327.343z"/>
<circle style="fill:#003C61;" cx="291.56" cy="425.827" r="16.733"/>
<path style="fill:#3E3E42;" d="M256.073,324.376h-52.588c-10.397,0-18.826,8.429-18.826,18.826V512h71.414V324.376z"/>
<path style="fill:#0066A6;" d="M256.073,0c-4.283,0-8.637,1.634-11.904,4.902L9.102,239.968c-4.786,4.786-6.218,11.983-3.628,18.236
	c2.59,6.253,8.692,10.33,15.459,10.33h235.138V0H256.073z"/>
<path style="fill:#79C6BF;" d="M313.784,164.787c0,31.914-25.799,57.784-57.712,57.784s-57.856-25.871-57.856-57.784
	s25.942-57.784,57.856-57.784S313.784,132.873,313.784,164.787z"/>
<path style="fill:#E4F3F6;" d="M256.073,107.007c-0.047,0,0.047-0.003,0-0.003c-31.914,0-57.856,25.871-57.856,57.784
	c0,31.912,25.942,57.784,57.856,57.784c0.047,0-0.047-0.003,0-0.003V107.007z"/>
<rect x="57.139" y="268.535" style="fill:#00609C;" width="408.045" height="23.427"/>
<rect x="57.139" y="268.535" style="fill:#007BC7;" width="198.936" height="23.427"/>
<g>
</g>
<g>
</g>
<g>
</g>
<g>
</g>
<g>
</g>
<g>
</g>
<g>
</g>
<g>
</g>
<g>
</g>
<g>
</g>
<g>
</g>
<g>
</g>
<g>
</g>
<g>
</g>
<g>
</g>
</svg>
