<svg width="512" height="512" xmlns="http://www.w3.org/2000/svg">

 <g>
  <title>background</title>
  <rect fill="none" id="canvas_background" height="402" width="582" y="-1" x="-1"/>
 </g>
 <g>
  <title>Layer 1</title>
  <g id="svg_15"/>
  <g id="svg_16"/>
  <g id="svg_17"/>
  <g id="svg_18"/>
  <g id="svg_19"/>
  <g id="svg_20"/>
  <g id="svg_21"/>
  <g id="svg_22"/>
  <g id="svg_23"/>
  <g id="svg_24"/>
  <g id="svg_25"/>
  <g id="svg_26"/>
  <g id="svg_27"/>
  <g id="svg_28"/>
  <g id="svg_29"/>
  <g stroke="null" id="svg_31">
   <path stroke="null" id="svg_1" fill="#324A5E" d="m218.110644,201.688819c-11.036131,42.230283 -53.986479,67.456435 -95.935927,56.346421s-67.007844,-54.347898 -55.971713,-96.578181s6.019206,-39.28253 47.967273,-28.172516c41.949448,11.108624 114.975117,26.176772 103.940366,68.404275z"/>
   <path stroke="null" id="svg_2" fill="#243342" d="m114.170278,133.285933c-19.775024,-5.236744 -29.108935,-8.654248 -34.611815,-6.384714l63.628253,133.728766c34.430963,-0.436395 65.736356,-23.786326 74.922548,-58.938387c11.036131,-42.230283 -61.992299,-57.295651 -103.938986,-68.405665z"/>
   <path stroke="null" id="svg_3" fill="#2B3B4E" d="m346.836057,148.173408c39.135883,-18.826151 99.105674,-78.929186 117.806629,-39.531303s11.023706,119.52785 -28.112177,138.354001c-39.135883,18.826151 -33.661995,20.774642 -52.36295,-18.62602c-18.700955,-39.399272 -76.468766,-61.369137 -37.331502,-80.196678z"/>
   <path stroke="null" id="svg_4" fill="#1E2C3A" d="m464.642686,108.642105c-6.917945,-14.57616 -19.48925,-15.52539 -34.559354,-9.99123l-28.273701,160.478133c5.908762,2.981108 14.150656,-2.237568 34.720878,-12.132902c39.137264,-18.826151 46.814512,-98.956118 28.112177,-138.354001z"/>
   <path stroke="null" id="svg_5" fill="#324A5E" d="m343.337739,119.531141c39.776459,17.41551 57.996982,63.994458 40.697287,104.038595s-63.568889,58.385249 -103.343968,40.96974c-39.776459,-17.41551 -37.647648,-11.977245 -20.347953,-52.018603s43.218175,-110.405242 82.994634,-92.989732z"/>
   <path stroke="null" id="svg_6" fill="#243342" d="m343.337739,119.531141c-3.422388,-1.496808 -6.735712,-2.304279 -9.955159,-2.578068l-23.811758,154.107317c31.183905,0.967297 61.261987,-16.931861 74.464204,-47.490654c17.299695,-40.044137 -0.920828,-86.623086 -40.697287,-104.038595z"/>
   <path stroke="null" id="svg_7" fill="#2B3B4E" d="m143.287496,240.62112c-25.570581,-35.270194 6.064764,-130.890807 41.099028,-156.635352s60.205865,28.14194 85.777827,63.413524c25.571961,35.271584 26.46794,29.4956 -8.570466,55.237366c-35.035644,25.744546 -92.737188,73.256046 -118.306389,37.984462z"/>
   <path stroke="null" id="svg_8" fill="#1E2C3A" d="m270.164351,147.400682c-19.890991,-27.437315 -39.543146,-66.123623 -63.782875,-69.842712l-14.107859,169.917614c23.882166,-9.92313 50.033959,-30.667196 69.320268,-44.838926c35.037025,-25.740376 34.139666,-19.967172 8.570466,-55.235976z"/>
   <path stroke="null" id="svg_9" fill="#D83E20" d="m406.587721,410.316368l-303.210597,0c-14.597955,0 -27.166499,-10.374813 -30.029763,-24.782808l-34.345368,-172.876486l431.95948,0l-34.345368,172.876486c-2.861884,14.410775 -15.430428,24.782808 -30.028383,24.782808z"/>
   <path stroke="null" id="svg_10" fill="#C1321F" d="m254.189986,212.657073l0,197.659294l152.397735,0c14.597955,0 27.166499,-10.374813 30.029763,-24.782808l34.345368,-172.876486l-216.772867,0l0,0z"/>
   <rect stroke="null" id="svg_11" fill="#FC6F58" height="39.531303" width="471.227896" y="180.904448" x="19.367784"/>
   <rect stroke="null" id="svg_12" fill="#F1543F" height="39.531303" width="236.400172" y="180.904448" x="254.196888"/>
   <circle stroke="null" id="svg_13" fill="#324A5E" r="37.220505" cy="407.314412" cx="143.124591"/>
   <circle stroke="null" id="svg_14" fill="#2B3B4E" r="37.220505" cy="407.314412" cx="372.789051"/>
  </g>
 </g>
</svg>