<?xml version="1.0" encoding="utf-8"?>
<!-- Generator: Adobe Illustrator 19.1.0, SVG Export Plug-In . SVG Version: 6.00 Build 0)  -->
<svg version="1.1" id="Layer_1" xmlns="http://www.w3.org/2000/svg" xmlns:xlink="http://www.w3.org/1999/xlink" x="0px" y="0px"
	 viewBox="0 0 128 128" style="enable-background:new 0 0 128 128;" xml:space="preserve">
<style type="text/css">
	.st0{fill:#C2D5D8;}
	.st1{fill:#CD584C;}
	.st2{fill:#C05447;}
	.st3{fill:#DA5E52;}
	.st4{fill:#B44F43;}
	.st5{fill:#A8493E;}
	.st6{fill:#242424;}
</style>
<g>
	<circle class="st0" cx="64" cy="64" r="64"/>
	<rect x="41" y="100.5" class="st1" width="46" height="9"/>
	<rect x="83" y="100.5" class="st2" width="4" height="9"/>
	<rect x="50" y="48.5" class="st1" width="28" height="52"/>
	<rect x="74" y="48.5" class="st2" width="4" height="52"/>
	<rect x="50" y="49.5" class="st2" width="28" height="2"/>
	<rect x="50" y="99.5" class="st2" width="28" height="1"/>
	<path class="st1" d="M55,21c0-4.9,3.8-10,9-10c5.2,0,9,5.1,9,10H55z"/>
	<path class="st3" d="M64,11.9c-0.3-0.2-0.7-0.5-1-0.6c-3.6,1.5-6,6.3-6,9.3h2C59,17.5,61,13.6,64,11.9z"/>
	<path class="st2" d="M64,10.8c-0.3,0-0.7-0.1-1-0.1c4.7,0.6,8,5.8,8,9.8h2C73,16.5,69.2,10.8,64,10.8z"/>
	<path class="st1" d="M64,19c-12.3,0-23,8.2-23,20v10.5h23h23V39C87,27.2,76.3,19,64,19z"/>
	<path class="st3" d="M67,23.2c-1-0.1-2-0.2-3-0.2c-9.3,0-19,6-19,16v10.5h6V39C51,30.1,58.7,24.3,67,23.2z"/>
	<path class="st2" d="M64,19c-0.7,0-1.3,0-2,0.1c11.5,0.8,21,8.8,21,19.9v10.5h4V39C87,27.2,76.3,19,64,19z"/>
	<path class="st1" d="M40,79c-4.9,0-10-3.8-10-9c0-5.2,5.1-9,10-9V79z"/>
	<path class="st2" d="M50,58.5c0-1.1-0.9-2-2-2h-8c-1.1,0-2,0.9-2,2v22c0,1.1,0.9,2,2,2h8c1.1,0,2-0.9,2-2V58.5z"/>
	<path class="st1" d="M88,79c4.9,0,10-3.8,10-9c0-5.2-5.1-9-10-9V79z"/>
	<path class="st2" d="M88,61v0.2c4,0.9,8,4.3,8,8.8c0,4.5-4,7.9-8,8.8V79c5,0,10-3.8,10-9C98,64.8,93,61,88,61z"/>
	<path class="st2" d="M90,80.5c0,1.1-0.9,2-2,2h-8c-1.1,0-2-0.9-2-2v-22c0-1.1,0.9-2,2-2h8c1.1,0,2,0.9,2,2V80.5z"/>
	<path class="st4" d="M90,57.5c0-0.6-0.4-1-1-1l0,0c-0.6,0-1,0.4-1,1v24c0,0.6,0.4,1,1,1l0,0c0.6,0,1-0.4,1-1V57.5z"/>
	<path class="st4" d="M50,57.5c0-0.6-0.4-1-1-1l0,0c-0.6,0-1,0.4-1,1v24c0,0.6,0.4,1,1,1l0,0c0.6,0,1-0.4,1-1V57.5z"/>
	<g>
		<path class="st5" d="M47,61.5h-6c-0.6,0-1-0.4-1-1c0-0.6,0.4-1,1-1h6c0.6,0,1,0.4,1,1C48,61.1,47.6,61.5,47,61.5z"/>
		<path class="st5" d="M47,67.5h-6c-0.6,0-1-0.4-1-1c0-0.6,0.4-1,1-1h6c0.6,0,1,0.4,1,1C48,67.1,47.6,67.5,47,67.5z"/>
		<path class="st5" d="M47,73.5h-6c-0.6,0-1-0.4-1-1c0-0.6,0.4-1,1-1h6c0.6,0,1,0.4,1,1C48,73.1,47.6,73.5,47,73.5z"/>
		<path class="st5" d="M47,79.5h-6c-0.6,0-1-0.4-1-1c0-0.6,0.4-1,1-1h6c0.6,0,1,0.4,1,1C48,79.1,47.6,79.5,47,79.5z"/>
	</g>
	<g>
		<path class="st5" d="M87,61.5h-6c-0.6,0-1-0.4-1-1c0-0.6,0.4-1,1-1h6c0.6,0,1,0.4,1,1C88,61.1,87.6,61.5,87,61.5z"/>
		<path class="st5" d="M87,67.5h-6c-0.6,0-1-0.4-1-1c0-0.6,0.4-1,1-1h6c0.6,0,1,0.4,1,1C88,67.1,87.6,67.5,87,67.5z"/>
		<path class="st5" d="M87,73.5h-6c-0.6,0-1-0.4-1-1c0-0.6,0.4-1,1-1h6c0.6,0,1,0.4,1,1C88,73.1,87.6,73.5,87,73.5z"/>
		<path class="st5" d="M87,79.5h-6c-0.6,0-1-0.4-1-1c0-0.6,0.4-1,1-1h6c0.6,0,1,0.4,1,1C88,79.1,87.6,79.5,87,79.5z"/>
	</g>
	<path class="st6" d="M19.5,109.5c11.5,12,27.2,18,44.5,18c17.3,0,33-6,44.5-18H19.5z"/>
</g>
</svg>
