<svg width="512" height="512" xmlns="http://www.w3.org/2000/svg">

 <g>
  <title>background</title>
  <rect fill="none" id="canvas_background" height="402" width="582" y="-1" x="-1"/>
 </g>
 <g>
  <title>Layer 1</title>
  <path id="svg_1" fill="#f1543f" d="m463.592392,220.429392c-9.033,0 -16.697,5.781 -19.55,13.838l-42.72,0l0,-41.513l6.919,0c11.463,0 20.757,-9.294 20.757,-20.757s-9.294,-20.757 -20.757,-20.757l-8.408,0c-9.129,-63.538 -59.514,-113.923 -123.052,-123.051l0,-8.408c0,-11.464 -9.294,-20.757 -20.757,-20.757s-20.757,9.293 -20.757,20.757l0,8.408c-63.538,9.129 -113.923,59.514 -123.052,123.052l-8.408,0c-11.463,0 -20.757,9.294 -20.757,20.757s9.293,20.757 20.757,20.757l6.919,0l0,41.514l-42.72,0c-2.853,-8.056 -10.517,-13.838 -19.55,-13.838c-11.463,0 -20.757,9.294 -20.757,20.757l0,13.836l0,83.027l0,13.838c0,11.463 9.293,20.757 20.757,20.757c9.033,0 16.697,-5.781 19.55,-13.838l42.72,0l0,110.703l-6.919,0c-11.463,0 -20.757,9.293 -20.757,20.757s9.295,20.756 20.758,20.756l27.676,0l124.54,0l124.541,0l27.676,0c11.463,0 20.757,-9.293 20.757,-20.757s-9.294,-20.757 -20.757,-20.757l-6.919,0l0,-110.702l42.72,0c2.853,8.056 10.517,13.838 19.55,13.838c11.463,0 20.757,-9.294 20.757,-20.757l0,-13.838l0,-83.027l0,-13.838c-0.001,-11.463 -9.294,-20.757 -20.757,-20.757z"/>
  <path id="svg_2" fill="#707070" d="m408.240392,469.511392l-6.919,0l-20.757,0l-20.757,0l-103.783,0l-103.784,0l-20.757,0l-20.757,0l-6.919,0c-11.463,0 -20.757,9.293 -20.757,20.757s9.295,20.756 20.758,20.756l27.676,0l124.54,0l124.541,0l27.676,0c11.463,0 20.757,-9.293 20.757,-20.757s-9.295,-20.756 -20.758,-20.756z"/>
  <path id="svg_3" fill="#c1321f" d="m409.216,151.240392l-8.408,0c-9.128,-63.538 -59.513,-113.923 -123.051,-123.051l0,-8.408c0,-11.464 -9.294,-20.757 -20.757,-20.757s-20.757,9.293 -20.757,20.757l0,8.408c-63.538,9.129 -113.923,59.514 -123.052,123.052l-8.408,0c-11.463,0 -20.757,9.294 -20.757,20.757s9.293,20.757 20.757,20.757l6.919,0l20.757,0l20.757,0l103.784,0l103.784,0l20.757,0l20.757,0l6.919,0c11.463,0 20.757,-9.294 20.757,-20.757s-9.295,-20.758 -20.758,-20.758z"/>
  <path id="svg_4" fill="#e8ae58" d="m256,235.243c-34.336,0 -62.27,27.934 -62.27,62.27s27.934,62.27 62.27,62.27s62.27,-27.934 62.27,-62.27s-27.934,-62.27 -62.27,-62.27z"/>
  <path id="svg_5" fill="#fc6f57" d="m152.216,469.511392l103.784,0l0,-110.703c-34.337,0 -62.27,-27.933 -62.27,-62.27s27.933,-62.27 62.27,-62.27l0,-41.514l-103.784,0l-20.757,0l-20.757,0l0,41.514l0,20.756l0,20.757l0,41.513l0,20.757l0,20.757l0,110.703l20.757,0l20.757,0z"/>
  <path id="svg_6" fill="#c1321f" d="m110.703,318.27l0,-41.513l0,-20.757l0,-20.757l-42.72,0c-2.853,-8.056 -10.517,-13.838 -19.55,-13.838c-11.463,0 -20.757,9.294 -20.757,20.757l0,13.838l0,83.027l0,13.838c0,11.463 9.293,20.757 20.757,20.757c9.033,0 16.697,-5.781 19.55,-13.838l42.72,0l0,-20.757l0,-20.757z"/>
  <path id="svg_7" fill="#ffc549" d="m193.73,297.514c0,34.337 27.933,62.27 62.27,62.27l0,-124.541c-34.337,0 -62.27,27.933 -62.27,62.271z"/>
  <path id="svg_8" fill="#898890" d="m152.216,469.511392l-20.757,0l-20.757,0l-6.919,0c-11.463,0 -20.757,9.293 -20.757,20.757s9.295,20.756 20.758,20.756l27.676,0l124.54,0l0,-41.513l-103.784,0z"/>
  <path id="svg_9" fill="#d83e20" d="m152.216,192.754392l103.784,0l0,-193.73c-11.463,0 -20.757,9.293 -20.757,20.757l0,8.408c-63.538,9.129 -113.923,59.514 -123.052,123.052l-8.408,0c-11.463,0 -20.757,9.294 -20.757,20.757s9.293,20.757 20.757,20.757l6.919,0l20.757,0l20.757,0l0,-0.001z"/>
  <path id="svg_10" fill="#c1321f" d="m463.568,220.405c-9.033,0 -16.697,5.781 -19.55,13.838l-42.72,0l0,20.757l0,20.757l0,41.513l0,20.757l0,20.757l42.72,0c2.852,8.056 10.517,13.838 19.55,13.838c11.463,0 20.757,-9.294 20.757,-20.757l0,-13.838l0,-83.027l0,-13.838c-0.001,-11.463 -9.294,-20.757 -20.757,-20.757z"/>
  <g id="svg_11"/>
  <g id="svg_12"/>
  <g id="svg_13"/>
  <g id="svg_14"/>
  <g id="svg_15"/>
  <g id="svg_16"/>
  <g id="svg_17"/>
  <g id="svg_18"/>
  <g id="svg_19"/>
  <g id="svg_20"/>
  <g id="svg_21"/>
  <g id="svg_22"/>
  <g id="svg_23"/>
  <g id="svg_24"/>
  <g id="svg_25"/>
 </g>
</svg>